<?xml version="1.0" encoding="utf-8"?>
<!-- Svg Vector Icons : http://www.onlinewebfonts.com/icon -->
<!DOCTYPE svg PUBLIC "-//W3C//DTD SVG 1.1//EN" "http://www.w3.org/Graphics/SVG/1.1/DTD/svg11.dtd">
<svg version="1.1" xmlns="http://www.w3.org/2000/svg" xmlns:xlink="http://www.w3.org/1999/xlink" x="0px" y="0px" viewBox="0 0 1000 1000" enable-background="new 0 0 1000 1000" xml:space="preserve">
<metadata> Svg Vector Icons : http://www.onlinewebfonts.com/icon </metadata>
<g><path d="M617.3,689.1H382.7c-7.2,0-13.1,5.8-13.1,13.1v201.1c0,7.2,5.9,13.1,13.1,13.1h234.5c7.2,0,13.1-5.9,13.1-13.1V702.2C630.3,695,624.5,689.1,617.3,689.1z"/><path d="M976.9,689.1H742.4c-7.2,0-13.1,5.8-13.1,13.1v201.1c0,7.2,5.8,13.1,13.1,13.1h234.5c7.2,0,13.1-5.9,13.1-13.1V702.2C990,695,984.2,689.1,976.9,689.1z"/><path d="M173.9,606.2h-25.5v-99.4h343.4v99.4h-25.4l33.6,45.4l33.6-45.4h-25.5v-99.4h343.4v99.4h-25.4l33.6,45.4l33.6-45.4h-25.5v-99.4v-16.3h-16.3H508.1V345.6h-16.3v144.9H148.5h-16.3v16.3v99.4h-25.4l33.6,45.4L173.9,606.2z"/><path d="M365,310.9H635c7.2,0,13.1-5.9,13.1-13.1V96.7c0-7.2-5.9-13.1-13.1-13.1H365c-7.2,0-13.1,5.9-13.1,13.1v201.1C351.9,305,357.7,310.9,365,310.9z M511.6,264.6c0,6.2-5,11.2-11.2,11.2c-6.2,0-11.2-5-11.2-11.2v-83.9c0-6.2,5-11.2,11.2-11.2c6.2,0,11.2,5,11.2,11.2V264.6z M419.3,196.7l77-75.7c3.3-3.2,8.5-3.2,11.8,0l72.6,75c3.3,3.2,3.6,8.9,0,11.8c-9.7,7.6-16.3,0-16.3,0l-57.1-59.4c-2.8-2.8-7.4-2.8-10.3,0l-61.4,60.1c0,0-7.3,7-16.3,0C415.7,205.6,416.1,200,419.3,196.7z"/><path d="M257.6,689.1H23.1c-7.2,0-13.1,5.8-13.1,13.1v201.1c0,7.2,5.9,13.1,13.1,13.1h234.5c7.2,0,13.1-5.9,13.1-13.1V702.2C270.7,695,264.8,689.1,257.6,689.1z M125.3,735.4c0-6.2,5-11.2,11.2-11.2c6.2,0,11.2,5,11.2,11.2v83.9c0,6.2-5,11.2-11.2,11.2c-6.2,0-11.2-5-11.2-11.2V735.4z M217.5,803.3l-77,75.7c-3.3,3.3-8.5,3.3-11.8,0l-72.6-75c-3.2-3.2-3.6-8.9,0-11.8c9.7-7.6,16.3,0,16.3,0l57.1,59.4c2.8,2.8,7.4,2.8,10.3,0l61.4-60.1c0,0,7.3-7,16.3,0C221.2,794.4,220.8,800,217.5,803.3z"/></g>
</svg>